<svg width="22" height="29" viewBox="0 0 22 29" fill="none" xmlns="http://www.w3.org/2000/svg">
<g clip-path="url(#clip0_558_132)">
<path d="M11.0008 0C10.3241 0 9.77041 0.542169 9.77041 1.20482V19.8795L2.10486 12.3373C1.62499 11.8675 0.843671 11.8675 0.363806 12.3373C-0.11606 12.8072 -0.11606 13.5723 0.363806 14.0422L10.1334 23.6084C10.1888 23.6627 10.2503 23.7108 10.3179 23.759H10.3672L10.5271 23.8434H10.6009C10.6502 23.8614 10.7055 23.8795 10.7609 23.8855C10.8409 23.8976 10.9209 23.8976 11.0008 23.8855C11.0808 23.8916 11.1669 23.8916 11.2469 23.8855C11.3023 23.8795 11.3515 23.8614 11.4007 23.8434H11.4745L11.6345 23.759H11.6837L11.8744 23.6084L21.6379 14.0422C22.1177 13.5723 22.1177 12.8072 21.6379 12.3373C21.158 11.8675 20.3767 11.8675 19.8968 12.3373L12.2313 19.8494V1.20482C12.2313 0.542169 11.6776 0 11.0008 0Z" class="fill" fill="black"/>
<path d="M1.23043 29H20.7696C21.4463 29 22 28.4578 22 27.7952C22 27.1325 21.4463 26.5903 20.7696 26.5903H1.23043C0.553691 26.5903 0 27.1325 0 27.7952C0 28.4578 0.553691 29 1.23043 29Z" fill="black" class="fill" />
</g>
<defs>
<clipPath id="clip0_558_132">
<rect width="22" height="29" fill="white" class="fill" />
</clipPath>
</defs>
</svg>
