<svg width="24" height="22" viewBox="0 0 24 22" fill="none" xmlns="http://www.w3.org/2000/svg">
<path d="M-4.80691e-07 10.9967C-4.5111e-07 11.6735 0.542168 12.2272 1.20482 12.2272L19.8795 12.2272L12.3373 19.8927C11.8675 20.3726 11.8675 21.1539 12.3373 21.6338C12.8072 22.1136 13.5723 22.1136 14.0422 21.6338L23.6084 11.8642C23.6627 11.8088 23.7108 11.7473 23.759 11.6796L23.759 11.6304L23.8434 11.4704L23.8434 11.3966C23.8614 11.3474 23.8795 11.292 23.8855 11.2367C23.8976 11.1567 23.8976 11.0767 23.8855 10.9967C23.8916 10.9167 23.8916 10.8306 23.8855 10.7506C23.8795 10.6953 23.8614 10.6461 23.8434 10.5968L23.8434 10.523L23.759 10.3631L23.759 10.3138L23.6084 10.1231L14.0422 0.359704C13.5723 -0.120162 12.8072 -0.120162 12.3373 0.359704C11.8675 0.83957 11.8675 1.62089 12.3373 2.10076L19.8494 9.7663L1.20482 9.7663C0.542168 9.7663 -5.10272e-07 10.32 -4.80691e-07 10.9967Z" fill="black" class="fill"/>
</svg>
